Coordinates
version=1
nRows=8
nColumns=36
inDegrees=yes

Units are S.I. units (second, meters, Newtons, ...)
If the header above contains a line with 'inDegrees', this indicates whether rotational values are in degrees (yes) or radians (no).

endheader
time	pelvis_tilt	pelvis_list	pelvis_rotation	pelvis_tx	pelvis_ty	pelvis_tz	hip_flexion_r	hip_adduction_r	hip_rotation_r	knee_angle_r	knee_angle_r_beta	ankle_angle_r	subtalar_angle_r	mtp_angle_r	hip_flexion_l	hip_adduction_l	hip_rotation_l	knee_angle_l	knee_angle_l_beta	ankle_angle_l	subtalar_angle_l	mtp_angle_l	lumbar_extension	lumbar_bending	lumbar_rotation	arm_flex_r	arm_add_r	arm_rot_r	elbow_flex_r	pro_sup_r	arm_flex_l	arm_add_l	arm_rot_l	elbow_flex_l	pro_sup_l
      3.94166670	    -11.95418366	     -0.54399548	     -0.97297733	      0.30088925	      0.73449303	     -0.08722326	     61.16110996	     -8.48726484	      0.85660452	     78.08967974	      1.36292202	     21.44304536	    -16.12431911	     -7.49999987	     62.84095927	     -8.26104797	      1.89465187	     79.54955300	      1.38840162	     19.77023613	    -14.64454787	     -7.49999987	    -36.08026860	      1.48657755	      4.76390194	     51.78089093	    -26.32760049	     12.05078355	    107.02622265	     93.68742109	     64.95144173	    -11.96575970	     27.13667629	     98.94434942	     85.43989404
      3.94583330	    -12.09116912	     -0.57165015	     -0.97307987	      0.29645806	      0.73126041	     -0.08592594	     61.90006840	     -8.46030616	      0.91019402	     78.68417191	      1.37329787	     21.40112946	    -16.19505088	     -7.49999987	     63.48952943	     -8.33384221	      1.93064164	     79.88960822	      1.39433670	     19.82615597	    -14.49288257	     -7.49999987	    -36.41824462	      1.34491250	      4.58424642	     53.24423976	    -26.20174551	     12.59286350	    107.33560357	     93.31511223	     66.49778787	    -11.99520260	     27.23575967	     99.35586152	     85.05231511
      3.95000000	    -12.06036327	     -0.65755462	     -1.00134541	      0.29772931	      0.73128083	     -0.08688540	     62.21582034	     -8.33881417	      1.00409517	     79.12446329	      1.38098240	     21.18038834	    -16.37604411	     -7.49999987	     63.70592677	     -8.40721600	      2.01147489	     80.22094846	      1.40011968	     19.55964517	    -14.48513252	     -7.49999987	    -36.86211866	      1.43250161	      4.21036400	     55.03834699	    -25.52565416	     13.60795595	    106.91790206	     98.87162618	     67.42515809	    -12.03714987	     26.59111608	    100.15902419	     87.31530885
      3.95416670	    -11.98785781	     -0.63819784	     -0.93833635	      0.29420947	      0.72890709	     -0.08511724	     62.51888998	     -8.35787776	      1.01649601	     79.40420129	      1.38586475	     20.84183568	    -16.64520511	     -7.49999987	     63.97980544	     -8.43647449	      1.98457262	     80.33527696	      1.40211509	     19.63940436	    -14.28406794	     -7.49999987	    -37.33319959	      1.33397237	      4.21155974	     56.62672777	    -25.55779680	     13.94379528	    107.33741983	     99.68889975	     68.84929296	    -11.75534901	     26.70291889	    100.08315124	     87.46997598
      3.95833330	    -11.98811911	     -0.60550546	     -1.00560522	      0.29053598	      0.72781188	     -0.08601295	     62.99695751	     -8.27994824	      1.11334471	     79.72238384	      1.39141809	     20.44864160	    -17.14110095	     -7.49999987	     64.35575910	     -8.45420783	      1.95578039	     80.52346735	      1.40539963	     19.37525921	    -14.42712551	     -7.49999987	    -37.80630526	      1.24509816	      4.16576068	     58.33731801	    -25.52898460	     14.69929964	    107.42071227	     97.16258987	     70.31382129	    -11.51118214	     26.81050649	    100.16968026	     85.72941284
      3.96250000	    -12.06996658	     -0.52454042	     -1.00627386	      0.28993728	      0.72610403	     -0.08700725	     63.50026044	     -8.33414221	      1.23123042	     80.02267378	      1.39665913	     20.30576556	    -17.24095953	     -7.49999987	     64.78058466	     -8.46115300	      1.84568262	     80.70241082	      1.40852278	     19.44245279	    -14.25302909	     -7.49999987	    -38.21394865	      1.14834104	      4.06266323	     59.99225914	    -25.71991488	     15.35711944	    107.68983187	     96.09103759	     71.53891473	    -11.08703731	     26.77864578	    100.36211124	     85.02490623
      3.96666670	    -12.04629289	     -0.53935768	     -0.99958534	      0.28788469	      0.72469435	     -0.08604155	     63.87747449	     -8.27454304	      1.25778168	     80.28024728	      1.40115464	     20.21443531	    -17.31194336	     -7.49999987	     65.19237227	     -8.58627687	      1.82717300	     81.02383573	      1.41413271	     19.59868934	    -14.00107267	     -7.49999987	    -38.66571386	      1.19508311	      3.87244055	     61.91514349	    -25.46987905	     16.03633338	    107.20451995	    100.47480697	     72.64460075	    -10.99816033	     26.41902218	    100.58860903	     87.31183338
      3.97083330	    -12.14410526	     -0.43968686	     -0.96766520	      0.28681993	      0.72211531	     -0.08509684	     64.40994266	     -8.30269100	      1.39510396	     80.64756907	      1.40756561	     20.21871441	    -17.39717260	     -7.49999987	     65.70751138	     -8.64894863	      1.79363933	     81.37963670	      1.42034260	     19.46669814	    -13.75903414	     -7.49999987	    -38.91339641	      1.06620022	      3.85586848	     63.17709704	    -25.56088461	     16.47842433	    107.55470818	     98.01933350	     73.69584857	    -10.81009220	     26.67939537	    100.87837731	     86.27377987
